<svg xmlns="http://www.w3.org/2000/svg" width="664" height="721" viewBox="0 0 664 721">
    <g fill="none" fill-rule="evenodd">
        <path fill="#00A2FF" fill-rule="nonzero" d="M219.698-106c-36.406 90.425-65.774 151.212-88.105 182.361C47.192 194.092-20.27 267.401 6.5 351.151c26.77 83.75 93.193 114.537 252.16 150.695 42.637 9.698 117.249 16.128 199.302 69.585 82.053 53.457 88.562 107.079 149.029 135.406 40.31 18.884 86.98 18.884 140.009 0V-106H219.698z"/>
        <path fill="#FFB600" d="M114.346 161.466a13.487 13.487 0 0 0-.524 7.2l-12.42 10.95c-.836.736-2.197.482-2.678-.513a30.725 30.725 0 0 1-.796-1.786c-.252-.616-.068-1.316.435-1.76l15.983-14.09zm17.97-9.54a14.35 14.35 0 0 0-7.337-.091l15.657-14.272a1.65 1.65 0 0 1 1.821-.277c.594.287 1.176.59 1.746.91.97.545 1.111 1.882.291 2.63l-12.178 11.1zm-28.138-1.42c-1.422 1.32-3.54-.508-2.46-2.125.5-.748 1.052-1.503 1.663-2.259 2.778-3.436 5.934-5.827 8.846-7.49 1.676-.955 3.297 1.342 1.88 2.658l-9.929 9.216zm55.967 13.916c.042.82.052 1.643.03 2.468a1.648 1.648 0 0 1-.547 1.17l-32.301 29.28a1.687 1.687 0 0 1-1.228.439 32.057 32.057 0 0 1-2.486-.243c-1.404-.192-1.948-1.92-.906-2.866l34.62-31.382c1.044-.946 2.746-.264 2.818 1.134zm-19.727-5.948a14.487 14.487 0 0 0-3.476-3.664l12-10.652c.672-.597 1.718-.558 2.359.08.426.425.839.862 1.238 1.307.601.671.551 1.678-.12 2.274l-12.001 10.655zm-24.499 15.34a14.473 14.473 0 0 0 3.476 3.662l-12 10.654c-.672.596-1.718.557-2.358-.081-.427-.425-.84-.861-1.24-1.307a1.595 1.595 0 0 1 .121-2.274l12.001-10.655zm36.24 7.967c1.422-1.32 3.54.508 2.46 2.125-.5.75-1.053 1.505-1.664 2.26-2.779 3.437-5.933 5.827-8.845 7.488-1.676.956-3.297-1.34-1.88-2.657l9.93-9.216zm-25.733-1.687c1.728.182 3.416.05 5.007-.35l-15.657 14.271a1.649 1.649 0 0 1-1.82.278 32.26 32.26 0 0 1-1.747-.91c-.97-.545-1.111-1.882-.291-2.63l12.177-11.101c.752.207 1.53.358 2.33.442zm15.64-9.982a13.483 13.483 0 0 0 .524-7.2l12.42-10.949c.836-.737 2.197-.483 2.678.513.284.587.55 1.182.796 1.785.252.616.068 1.317-.436 1.761l-15.982 14.09zm-8.801-36.334c1.412.193 1.961 1.915.914 2.855l-34.796 31.215c-1.048.94-2.762.26-2.835-1.133a30.95 30.95 0 0 1-.033-2.457c.011-.444.214-.865.55-1.165l32.464-29.123c.334-.3.78-.463 1.234-.436.833.049 1.667.13 2.502.244z"/>
    </g>
</svg>
